<svg width="107" height="99" viewBox="0 0 107 99" fill="none" xmlns="http://www.w3.org/2000/svg">
<path d="M27.3279 84.6066C26.4038 84.6047 25.4964 84.3597 24.6962 83.896C23.8959 83.4323 23.2309 82.7661 22.7675 81.9639L1.78411 45.4908C1.32285 44.6869 1.08008 43.7756 1.08008 42.848C1.08008 41.9204 1.32285 41.0091 1.78411 40.2053L22.7675 3.72673C23.2309 2.92453 23.8959 2.25832 24.6962 1.7946C25.4964 1.33087 26.4038 1.08585 27.3279 1.08398H69.3054C70.2313 1.08396 71.141 1.32809 71.9432 1.7919C72.7455 2.25572 73.4122 2.92294 73.8766 3.72673L94.86 40.1998C95.3212 41.0037 95.564 41.915 95.564 42.8426C95.564 43.7702 95.3212 44.6815 94.86 45.4853L73.8766 81.9639C73.4132 82.7661 72.7481 83.4323 71.9479 83.896C71.1477 84.3597 70.2403 84.6047 69.3162 84.6066H27.3279Z" fill="#2916FC"/>
<path d="M69.3053 2.1716C70.0402 2.17273 70.7619 2.36738 71.3983 2.73611C72.0348 3.10483 72.5636 3.63473 72.932 4.2728L93.9154 40.7459C94.2814 41.3853 94.474 42.1098 94.474 42.8471C94.474 43.5845 94.2814 44.3089 93.9154 44.9483L72.932 81.4214C72.5628 82.0588 72.0338 82.5881 71.3975 82.9567C70.7613 83.3253 70.0399 83.5204 69.3053 83.5226H27.3278C26.5937 83.5211 25.8728 83.3262 25.2373 82.9575C24.6018 82.5888 24.0739 82.0591 23.7064 81.4214L2.71765 44.9483C2.35165 44.3089 2.15906 43.5845 2.15906 42.8471C2.15906 42.1098 2.35165 41.3853 2.71765 40.7459L23.6848 4.26738C24.0515 3.62899 24.5792 3.09872 25.2149 2.72988C25.8506 2.36103 26.5719 2.16662 27.3062 2.16618H69.2837L69.3053 2.1716ZM69.2837 3.99424e-08H27.3062C26.196 0.0036709 25.1063 0.299707 24.1459 0.858511C23.1856 1.41731 22.3883 2.21931 21.8337 3.18429L0.850307 39.6574C0.293257 40.6255 0 41.7238 0 42.8417C0 43.9596 0.293257 45.0578 0.850307 46.026L21.8337 82.4991C22.3901 83.4673 23.1908 84.2713 24.1553 84.8303C25.1198 85.3893 26.214 85.6835 27.3278 85.6834H69.3053C70.4191 85.6835 71.5132 85.3893 72.4777 84.8303C73.4422 84.2713 74.2429 83.4673 74.7994 82.4991L95.7881 46.026C96.3452 45.0578 96.6384 43.9596 96.6384 42.8417C96.6384 41.7238 96.3452 40.6255 95.7881 39.6574L74.7994 3.18429C74.2429 2.21613 73.4422 1.4121 72.4777 0.853107C71.5132 0.294113 70.4191 -0.000125167 69.3053 3.99424e-08H69.2837Z" fill="white"/>
<path d="M45.8125 21.1857V63.2313C45.8125 63.8059 45.585 64.3568 45.1802 64.7631C44.7753 65.1693 44.2262 65.3975 43.6537 65.3975H35.6446C35.0721 65.3975 34.523 65.1693 34.1181 64.7631C33.7133 64.3568 33.4858 63.8059 33.4858 63.2313V21.1857C33.4858 20.6112 33.7133 20.0602 34.1181 19.654C34.523 19.2478 35.0721 19.0195 35.6446 19.0195H43.6537C44.2262 19.0195 44.7753 19.2478 45.1802 19.654C45.585 20.0602 45.8125 20.6112 45.8125 21.1857ZM68.0695 22.388L57.1893 38.5802C56.9642 38.9178 56.8383 39.3121 56.8259 39.7182C56.8134 40.1242 56.9151 40.5255 57.1191 40.8763L69.6131 62.1374C69.8015 62.465 69.9013 62.8363 69.9023 63.2146C69.9034 63.5928 69.8057 63.9647 69.6191 64.2933C69.4324 64.622 69.1632 64.8958 68.8384 65.0876C68.5135 65.2794 68.1442 65.3825 67.7673 65.3867H58.695C58.3146 65.3882 57.9406 65.2888 57.6107 65.0986C57.2809 64.9084 57.0071 64.6342 56.8169 64.3036L44.4039 41.8511C44.2191 41.5129 44.1276 41.1312 44.139 40.7457C44.1504 40.3601 44.2642 39.9845 44.4686 39.6578L56.8492 20.0593C57.0432 19.754 57.3103 19.5024 57.6261 19.3274C57.9419 19.1523 58.2964 19.0595 58.6572 19.0574H66.2777C66.6609 19.0654 67.035 19.1755 67.3618 19.3766C67.6885 19.5776 67.9559 19.8623 68.1367 20.2014C68.3175 20.5404 68.4051 20.9217 68.3904 21.306C68.3757 21.6903 68.2594 22.0637 68.0533 22.388H68.0695Z" fill="white"/>
<path d="M93.4187 50.3975L77.5139 78.038H69.0029L61.2259 64.521L58.9268 60.5136L62.8665 53.663L66.0993 48.0472L69.0029 43H89.1659L93.4187 50.3975Z" fill="url(#paint0_linear_4058_23)"/>
<path opacity="0.68" d="M67.3625 65.3819H59.7205L59.2239 64.5155L56.9194 60.5135L60.8646 53.6629L62.5269 50.7656L69.2137 62.1381C69.4011 62.4659 69.4997 62.8372 69.4999 63.2151C69.5 63.593 69.4016 63.9644 69.2145 64.2923C69.0273 64.6202 68.7579 64.8933 68.4331 65.0845C68.1082 65.2756 67.7391 65.3782 67.3625 65.3819V65.3819Z" fill="white"/>
<path d="M106.669 58.3789C106.519 57.8992 106.316 57.4378 106.064 57.0034L97.2886 41.7426L96.3063 40.0421L95.6047 38.8182C95.2961 38.2835 94.9187 37.7919 94.4822 37.3561C93.17 36.0502 91.3974 35.3165 89.5494 35.3145H68.62C67.6106 35.3168 66.6137 35.5377 65.6972 35.962C64.7807 36.3863 63.9662 37.0041 63.3094 37.7731C63.0322 38.0985 62.7848 38.4483 62.57 38.8182L58.4036 46.0587L52.1107 57.0034C52.0889 57.0383 52.0691 57.0745 52.0513 57.1117C51.4693 58.1708 51.1691 59.3624 51.1795 60.5718C51.1899 61.7812 51.5106 62.9675 52.1107 64.0164L62.57 82.2015C63.136 83.1806 63.929 84.0083 64.8816 84.6145C65.8343 85.2207 66.9185 85.5874 68.0425 85.6836C68.2314 85.6836 68.4257 85.6836 68.62 85.6836H89.5278C89.7568 85.6844 89.9856 85.6717 90.2132 85.6457L97.6448 97.5597C98.0702 98.2341 98.7439 98.7125 99.5191 98.891C100.294 99.0695 101.108 98.9336 101.784 98.5129L102.232 98.2313C102.906 97.8061 103.385 97.1309 103.565 96.3529C103.745 95.5749 103.611 94.7571 103.193 94.0776L95.6371 82.0174L106.015 63.9839C106.504 63.1454 106.814 62.2145 106.926 61.2499C107.039 60.2853 106.951 59.3078 106.669 58.3789V58.3789ZM96.954 64.4713L89.15 78.0099H69.0194L68.9708 77.9233L61.2477 64.493L58.9432 60.4855L62.8884 53.6349L66.1266 48.0191L68.9816 43.0586H89.2417L93.4514 50.3694L99.2423 60.5071L96.954 64.4713Z" fill="#0400AF"/>
<defs>
<linearGradient id="paint0_linear_4058_23" x1="58.9268" y1="60.519" x2="93.4241" y2="60.519" gradientUnits="userSpaceOnUse">
<stop stop-color="#FF7879"/>
<stop offset="0.21" stop-color="#FC777B"/>
<stop offset="0.36" stop-color="#F27281"/>
<stop offset="0.5" stop-color="#E26B8A"/>
<stop offset="0.63" stop-color="#CB6098"/>
<stop offset="0.75" stop-color="#AE52AA"/>
<stop offset="0.86" stop-color="#8A41C0"/>
<stop offset="0.98" stop-color="#602EDA"/>
<stop offset="1" stop-color="#5529E0"/>
</linearGradient>
</defs>
</svg>
